{
.appVersion = "1230";
DisplayStrings = (
"/behDotless-ar.medi",
"/seen-ar.medi"
);
copyright = "Free, as in free shake";
customParameters = (
{
name = note;
value = "تم عَمَل هذا الـ typeface بأخذ حرف العين من خط Cairo ، المتوفر على GitHub ، وإستلهام بقية الحروف منه";
}
);
date = "2019-04-23 10:26:53 +0000";
designer = "AbdElmomen Kadhim";
designerURL = bluemix.me;
familyName = Ratioed;
fontMaster = (
{
alignmentZones = (
"{0, 38}"
);
ascender = 800;
capHeight = 38;
custom = Ratioed;
descender = -600;
iconName = SemiLight_SemiExtended;
id = "BA82AF6A-5289-49F9-B535-AE40A2A15B95";
userData = {
GSCornerRadius = 120;
GSOffsetHorizontal = 0;
GSOffsetVertical = 10;
};
xHeight = 500;
}
);
glyphs = (
{
glyphname = D;
lastChange = "2019-05-14 20:11:18 +0000";
layers = (
{
layerId = "BA82AF6A-5289-49F9-B535-AE40A2A15B95";
paths = (
{
closed = 1;
nodes = (
"311 18 OFFCURVE",
"445 146 OFFCURVE",
"445 326 CURVE SMOOTH",
"445 444 OFFCURVE",
"311 523 OFFCURVE",
"109 523 CURVE SMOOTH",
"87 523 OFFCURVE",
"56 522 OFFCURVE",
"31 520 CURVE",
"31 235 OFFCURVE",
"39 27 OFFCURVE",
"52 0 CURVE"
);
},
{
closed = 1;
nodes = (
"82 56 OFFCURVE",
"76 235 OFFCURVE",
"76 486 CURVE",
"270 462 OFFCURVE",
"399 432 OFFCURVE",
"399 309 CURVE SMOOTH",
"399 192 OFFCURVE",
"276 83 OFFCURVE",
"91 39 CURVE SMOOTH"
);
}
);
width = 445;
}
);
unicode = 0044;
},
{
glyphname = "hamza-ar";
lastChange = "2019-05-12 16:47:08 +0000";
layers = (
{
layerId = "BA82AF6A-5289-49F9-B535-AE40A2A15B95";
paths = (
{
closed = 1;
nodes = (
"128 163 LINE",
"63 179 OFFCURVE",
"36 213 OFFCURVE",
"36 247 CURVE SMOOTH",
"36 293 OFFCURVE",
"86 340 OFFCURVE",
"157 340 CURVE SMOOTH",
"182 340 OFFCURVE",
"203 338 OFFCURVE",
"210 336 CURVE",
"210 366 LINE",
"192 372 OFFCURVE",
"174 374 OFFCURVE",
"157 374 CURVE SMOOTH",
"72 374 OFFCURVE",
"2 310 OFFCURVE",
"2 245 CURVE SMOOTH",
"2 200 OFFCURVE",
"35 154 OFFCURVE",
"120 130 CURVE"
);
},
{
closed = 1;
nodes = (
"206 204 OFFCURVE",
"142 184 OFFCURVE",
"30 105 CURVE",
"36 73 LINE",
"146 150 OFFCURVE",
"198 170 OFFCURVE",
"285 184 CURVE",
"285 213 LINE"
);
}
);
width = 290;
}
);
unicode = 0621;
},
{
glyphname = "alef-ar";
lastChange = "2019-05-16 21:45:38 +0000";
layers = (
{
anchors = (
{
name = "#entry";
position = "{43, -1}";
},
{
name = top;
position = "{25, 748}";
}
);
guideLines = (
{
position = "{8, 314}";
showMeasurement = 1;
}
);
layerId = "BA82AF6A-5289-49F9-B535-AE40A2A15B95";
paths = (
{
closed = 1;
nodes = (
"17 660 LINE",
"25 345 OFFCURVE",
"23 191 OFFCURVE",
"0 -2 CURVE",
"13 -3 OFFCURVE",
"30 -3 OFFCURVE",
"43 -1 CURVE",
"55 78 OFFCURVE",
"63 327 OFFCURVE",
"63 690 CURVE"
);
}
);
width = 63;
}
);
unicode = 0627;
},
{
glyphname = "behDotless-ar";
lastChange = "2019-05-16 21:23:01 +0000";
layers = (
{
anchors = (
{
name = "#entry";
position = "{565, 0}";
},
{
name = "#exit";
position = "{19, 40}";
},
{
name = bottom;
position = "{358, -63}";
},
{
name = ring;
position = "{281, 0}";
},
{
name = top;
position = "{356, 134}";
}
);
guideLines = (
{
alignment = center;
angle = 90;
position = "{399, -57}";
showMeasurement = 1;
}
);
hints = (
{
horizontal = 1;
place = "{1.25, 36.25}";
type = Stem;
},
{
origin = "{0, 3}";
target = "{0, 6}";
type = Stem;
}
);
layerId = "BA82AF6A-5289-49F9-B535-AE40A2A15B95";
paths = (
{
closed = 1;
nodes = (
"367 23 OFFCURVE",
"147 41 OFFCURVE",
"15 83 CURVE",
"0 44 LINE",
"163 -5 OFFCURVE",
"377 -14 OFFCURVE",
"565 0 CURVE",
"565 38 LINE"
);
}
);
width = 565;
}
);
unicode = 066E;
},
{
glyphname = "behDotless-ar.init";
lastChange = "2019-05-16 21:45:01 +0000";
layers = (
{
anchors = (
{
name = "#entry";
position = "{258, 0}";
}
);
layerId = "BA82AF6A-5289-49F9-B535-AE40A2A15B95";
paths = (
{
closed = 1;
nodes = (
"136 -21 OFFCURVE",
"292 -11 OFFCURVE",
"389 43 CURVE",
"380 89 LINE",
"301 32 OFFCURVE",
"148 19 OFFCURVE",
"-1 38 CURVE",
"-1 0 LINE"
);
}
);
width = 389;
}
);
},
{
glyphname = "hah-ar";
lastChange = "2019-05-14 15:03:37 +0000";
layers = (
{
layerId = "BA82AF6A-5289-49F9-B535-AE40A2A15B95";
paths = (
{
closed = 1;
nodes = (
"280 230 OFFCURVE",
"240 23 CURVE",
"268 18 LINE",
"304 230 OFFCURVE",
"352 431 OFFCURVE",
"11 500 CURVE",
"11 459 LINE",
"298 412 OFFCURVE"
);
},
{
closed = 1;
nodes = (
"216 -170 LINE",
"151 -153 OFFCURVE",
"124 -119 OFFCURVE",
"124 -86 CURVE SMOOTH",
"124 -40 OFFCURVE",
"174 7 OFFCURVE",
"245 7 CURVE SMOOTH",
"270 7 OFFCURVE",
"291 5 OFFCURVE",
"298 3 CURVE",
"298 33 LINE",
"280 39 OFFCURVE",
"262 41 OFFCURVE",
"245 41 CURVE SMOOTH",
"160 41 OFFCURVE",
"90 -23 OFFCURVE",
"90 -88 CURVE SMOOTH",
"90 -133 OFFCURVE",
"123 -179 OFFCURVE",
"208 -203 CURVE"
);
}
);
width = 325;
}
);
unicode = 062D;
},
{
glyphname = "hah-ar.init";
lastChange = "2019-05-16 21:53:04 +0000";
layers = (
{
anchors = (
{
name = "#entry";
position = "{360, 0}";
}
);
layerId = "BA82AF6A-5289-49F9-B535-AE40A2A15B95";
paths = (
{
closed = 1;
nodes = (
"344 412 OFFCURVE",
"326 230 OFFCURVE",
"286 23 CURVE",
"314 18 LINE",
"350 230 OFFCURVE",
"398 431 OFFCURVE",
"57 500 CURVE",
"57 459 LINE"
);
},
{
closed = 1;
nodes = (
"360 37 LINE",
"245 26 OFFCURVE",
"106 27 OFFCURVE",
"0 38 CURVE",
"0 0 LINE",
"98 -9 OFFCURVE",
"239 -9 OFFCURVE",
"360 0 CURVE"
);
}
);
width = 360;
}
);
unicode = FEA3;
},
{
glyphname = "dal-ar";
lastChange = "2019-05-16 21:53:31 +0000";
layers = (
{
anchors = (
{
name = "#entry";
position = "{337, 1}";
}
);
layerId = "BA82AF6A-5289-49F9-B535-AE40A2A15B95";
paths = (
{
closed = 1;
nodes = (
"366 412 OFFCURVE",
"348 205 OFFCURVE",
"308 -2 CURVE",
"336 0 LINE",
"372 212 OFFCURVE",
"420 431 OFFCURVE",
"79 500 CURVE",
"79 459 LINE"
);
},
{
closed = 1;
nodes = (
"336 37 LINE",
"206 25 OFFCURVE",
"135 25 OFFCURVE",
"15 37 CURVE",
"17 0 LINE",
"115 -9 OFFCURVE",
"239 -11 OFFCURVE",
"326 0 CURVE"
);
}
);
width = 370;
}
);
unicode = 062F;
},
{
glyphname = "reh-ar";
lastChange = "2019-05-16 21:55:44 +0000";
layers = (
{
anchors = (
{
name = "#entry";
position = "{190, 0}";
}
);
guideLines = (
{
position = "{94, -118}";
showMeasurement = 1;
}
);
layerId = "BA82AF6A-5289-49F9-B535-AE40A2A15B95";
paths = (
{
closed = 1;
nodes = (
"98 -166 OFFCURVE",
"6 -165 CURVE",
"10 -195 LINE",
"117 -195 OFFCURVE",
"192 -97 OFFCURVE",
"198 51 CURVE",
"164 44 LINE",
"164 -79 OFFCURVE"
);
}
);
width = 210;
}
);
unicode = 0631;
},
{
glyphname = "seen-ar";
lastChange = "2019-05-16 21:57:58 +0000";
layers = (
{
anchors = (
{
name = "#entry";
position = "{532, -127}";
}
);
components = (
{
name = _tajweef;
}
);
guideLines = (
{
angle = 90;
position = "{418, -260}";
showMeasurement = 1;
}
);
layerId = "BA82AF6A-5289-49F9-B535-AE40A2A15B95";
paths = (
{
closed = 1;
nodes = (
"313 140 LINE",
"313 121 OFFCURVE",
"313 102 OFFCURVE",
"313 93 CURVE SMOOTH",
"313 -91 OFFCURVE",
"418 -174 OFFCURVE",
"575 -114 CURVE SMOOTH",
"696 -67 OFFCURVE",
"753 106 OFFCURVE",
"716 318 CURVE",
"685 314 LINE",
"707 118 OFFCURVE",
"657 -38 OFFCURVE",
"560 -76 CURVE SMOOTH",
"429 -128 OFFCURVE",
"345 -46 OFFCURVE",
"350 129 CURVE"
);
},
{
closed = 1;
nodes = (
"313 93 LINE",
"322 -56 OFFCURVE",
"223 -84 OFFCURVE",
"234 61 CURVE",
"195 58 LINE",
"189 -128 OFFCURVE",
"360 -94 OFFCURVE",
"349 93 CURVE"
);
}
);
width = 727;
}
);
unicode = 0633;
changeCount = 18;
},
{
glyphname = "seen-ar.init";
lastChange = "2019-05-16 22:03:14 +0000";
layers = (
{
anchors = (
{
name = "#entry";
position = "{624, 0}";
}
);
layerId = "BA82AF6A-5289-49F9-B535-AE40A2A15B95";
paths = (
{
closed = 1;
nodes = (
"326 234 LINE",
"326 215 OFFCURVE",
"326 196 OFFCURVE",
"326 187 CURVE SMOOTH",
"326 3 OFFCURVE",
"431 -80 OFFCURVE",
"588 -20 CURVE SMOOTH",
"710 26 OFFCURVE",
"766 200 OFFCURVE",
"729 412 CURVE",
"698 408 LINE",
"720 212 OFFCURVE",
"670 56 OFFCURVE",
"573 18 CURVE SMOOTH",
"442 -35 OFFCURVE",
"358 47 OFFCURVE",
"363 223 CURVE"
);
},
{
closed = 1;
nodes = (
"326 187 LINE",
"335 38 OFFCURVE",
"236 10 OFFCURVE",
"247 155 CURVE",
"208 152 LINE",
"199 -59 OFFCURVE",
"373 0 OFFCURVE",
"362 187 CURVE"
);
},
{
closed = 1;
nodes = (
"208 152 LINE",
"208 72 OFFCURVE",
"129 24 OFFCURVE",
"-1 38 CURVE",
"-1 0 LINE",
"95 -8 OFFCURVE",
"232 2 OFFCURVE",
"243 127 CURVE"
);
}
);
width = 800;
}
);
unicode = FEB3;
changeCount = 12;
},
{
glyphname = "sad-ar";
lastChange = "2019-05-14 14:36:54 +0000";
layers = (
{
background = {
paths = (
{
closed = 1;
nodes = (
"231 18 LINE",
"231 -83 OFFCURVE",
"177 -138 OFFCURVE",
"131 -138 CURVE SMOOTH",
"80 -138 OFFCURVE",
"64 -76 OFFCURVE",
"70 -20 CURVE",
"35 -15 LINE",
"35 -94 OFFCURVE",
"52 -169 OFFCURVE",
"131 -169 CURVE SMOOTH",
"218 -169 OFFCURVE",
"265 -82 OFFCURVE",
"265 18 CURVE"
);
},
{
closed = 1;
nodes = (
"423 -23 OFFCURVE",
"349 -22 OFFCURVE",
"239 6 CURVE",
"225 -40 LINE",
"480 -69 OFFCURVE",
"674 -100 OFFCURVE",
"700 148 CURVE SMOOTH",
"721 351 OFFCURVE",
"622 466 OFFCURVE",
"531 466 CURVE SMOOTH",
"436 466 OFFCURVE",
"294 299 OFFCURVE",
"264 -84 CURVE",
"292 -94 LINE",
"322 242 OFFCURVE",
"441 416 OFFCURVE",
"531 427 CURVE SMOOTH",
"684 446 OFFCURVE",
"760 -23 OFFCURVE",
"494 -23 CURVE SMOOTH"
);
}
);
};
layerId = "BA82AF6A-5289-49F9-B535-AE40A2A15B95";
paths = (
{
closed = 1;
nodes = (
"208 81 LINE",
"208 -20 OFFCURVE",
"154 -75 OFFCURVE",
"108 -75 CURVE SMOOTH",
"57 -75 OFFCURVE",
"41 -13 OFFCURVE",
"47 43 CURVE",
"12 48 LINE",
"12 -29 OFFCURVE",
"29 -106 OFFCURVE",
"108 -106 CURVE SMOOTH",
"195 -106 OFFCURVE",
"242 -19 OFFCURVE",
"242 81 CURVE"
);
},
{
closed = 1;
nodes = (
"400 40 OFFCURVE",
"326 41 OFFCURVE",
"216 69 CURVE",
"202 23 LINE",
"457 -6 OFFCURVE",
"651 -37 OFFCURVE",
"677 211 CURVE SMOOTH",
"698 414 OFFCURVE",
"599 529 OFFCURVE",
"508 529 CURVE SMOOTH",
"413 529 OFFCURVE",
"271 362 OFFCURVE",
"241 -21 CURVE",
"269 -31 LINE",
"299 305 OFFCURVE",
"418 479 OFFCURVE",
"508 490 CURVE SMOOTH",
"661 509 OFFCURVE",
"737 40 OFFCURVE",
"471 40 CURVE SMOOTH"
);
}
);
width = 720;
}
);
unicode = 0635;
},
{
glyphname = "sad-ar.init";
lastChange = "2019-05-12 19:12:10 +0000";
layers = (
{
layerId = "BA82AF6A-5289-49F9-B535-AE40A2A15B95";
paths = (
{
closed = 1;
nodes = (
"45 57 LINE",
"49 45 OFFCURVE",
"30 28 OFFCURVE",
"-5 31 CURVE",
"-5 0 LINE",
"35 0 OFFCURVE",
"82 26 OFFCURVE",
"71 64 CURVE"
);
},
{
closed = 1;
nodes = (
"213 33 OFFCURVE",
"106 37 OFFCURVE",
"48 52 CURVE",
"38 26 LINE",
"293 -3 OFFCURVE",
"484 -39 OFFCURVE",
"510 209 CURVE SMOOTH",
"531 412 OFFCURVE",
"432 527 OFFCURVE",
"341 527 CURVE SMOOTH",
"246 527 OFFCURVE",
"104 360 OFFCURVE",
"74 -23 CURVE",
"102 -33 LINE",
"132 303 OFFCURVE",
"251 477 OFFCURVE",
"341 488 CURVE SMOOTH",
"494 507 OFFCURVE",
"578 51 OFFCURVE",
"313 38 CURVE SMOOTH"
);
}
);
width = 520;
}
);
unicode = FEBB;
},
{
glyphname = "tah-ar";
lastChange = "2019-05-12 19:30:59 +0000";
layers = (
{
layerId = "BA82AF6A-5289-49F9-B535-AE40A2A15B95";
paths = (
{
closed = 1;
nodes = (
"208 81 LINE",
"208 -20 OFFCURVE",
"154 -75 OFFCURVE",
"108 -75 CURVE SMOOTH",
"57 -75 OFFCURVE",
"41 -13 OFFCURVE",
"47 43 CURVE",
"12 48 LINE",
"12 -31 OFFCURVE",
"29 -106 OFFCURVE",
"108 -106 CURVE SMOOTH",
"195 -106 OFFCURVE",
"242 -19 OFFCURVE",
"242 81 CURVE"
);
},
{
closed = 1;
nodes = (
"400 40 OFFCURVE",
"326 41 OFFCURVE",
"216 69 CURVE",
"202 23 LINE",
"457 -6 OFFCURVE",
"651 -37 OFFCURVE",
"677 211 CURVE SMOOTH",
"698 414 OFFCURVE",
"599 529 OFFCURVE",
"508 529 CURVE SMOOTH",
"413 529 OFFCURVE",
"271 362 OFFCURVE",
"241 -21 CURVE",
"269 -31 LINE",
"299 305 OFFCURVE",
"418 479 OFFCURVE",
"508 490 CURVE SMOOTH",
"661 509 OFFCURVE",
"737 40 OFFCURVE",
"471 40 CURVE SMOOTH"
);
},
{
closed = 1;
nodes = (
"285 527 LINE",
"311 450 OFFCURVE",
"304 289 OFFCURVE",
"285 232 CURVE",
"327 280 LINE",
"334 329 OFFCURVE",
"337 460 OFFCURVE",
"314 537 CURVE"
);
}
);
width = 680;
}
);
unicode = 0637;
},
{
glyphname = "tah-ar.init";
lastChange = "2019-05-14 15:03:42 +0000";
layers = (
{
layerId = "BA82AF6A-5289-49F9-B535-AE40A2A15B95";
paths = (
{
closed = 1;
nodes = (
"45 57 LINE",
"49 45 OFFCURVE",
"30 28 OFFCURVE",
"-5 31 CURVE",
"-5 0 LINE",
"35 0 OFFCURVE",
"82 26 OFFCURVE",
"71 64 CURVE"
);
},
{
closed = 1;
nodes = (
"213 33 OFFCURVE",
"106 37 OFFCURVE",
"48 52 CURVE",
"38 26 LINE",
"293 -3 OFFCURVE",
"484 -39 OFFCURVE",
"510 209 CURVE SMOOTH",
"531 412 OFFCURVE",
"432 527 OFFCURVE",
"341 527 CURVE SMOOTH",
"246 527 OFFCURVE",
"104 360 OFFCURVE",
"74 -23 CURVE",
"102 -33 LINE",
"132 303 OFFCURVE",
"251 477 OFFCURVE",
"341 488 CURVE SMOOTH",
"494 507 OFFCURVE",
"578 51 OFFCURVE",
"313 38 CURVE SMOOTH"
);
},
{
closed = 1;
nodes = (
"117 527 LINE",
"143 450 OFFCURVE",
"136 289 OFFCURVE",
"117 232 CURVE",
"159 280 LINE",
"166 329 OFFCURVE",
"169 460 OFFCURVE",
"146 537 CURVE"
);
}
);
width = 600;
}
);
unicode = FEC3;
},
{
glyphname = "ain-ar";
lastChange = "2019-05-13 21:18:21 +0000";
layers = (
{
background = {
paths = (
{
closed = 1;
nodes = (
"463 407 OFFCURVE",
"463 407 OFFCURVE",
"478 426 CURVE",
"427 467 OFFCURVE",
"374 487 OFFCURVE",
"312 490 CURVE SMOOTH",
"158 496 OFFCURVE",
"54 412 OFFCURVE",
"52 281 CURVE SMOOTH",
"50 145 OFFCURVE",
"157 33 OFFCURVE",
"319 0 CURVE",
"327 31 LINE",
"187 69 OFFCURVE",
"93 169 OFFCURVE",
"93 281 CURVE SMOOTH",
"93 393 OFFCURVE",
"183 461 OFFCURVE",
"317 452 CURVE SMOOTH",
"367 450 OFFCURVE",
"422 428 OFFCURVE",
"454 396 CURVE"
);
}
);
};
layerId = "BA82AF6A-5289-49F9-B535-AE40A2A15B95";
paths = (
{
closed = 1;
nodes = (
"478 426 LINE",
"434 462 OFFCURVE",
"367 488 OFFCURVE",
"312 490 CURVE SMOOTH",
"158 496 OFFCURVE",
"54 412 OFFCURVE",
"52 281 CURVE SMOOTH",
"50 146 OFFCURVE",
"157 34 OFFCURVE",
"319 0 CURVE",
"327 31 LINE",
"187 70 OFFCURVE",
"93 170 OFFCURVE",
"93 281 CURVE SMOOTH",
"93 393 OFFCURVE",
"183 461 OFFCURVE",
"317 452 CURVE SMOOTH",
"367 451 OFFCURVE",
"421 429 OFFCURVE",
"454 396 CURVE"
);
},
{
closed = 1;
nodes = (
"297 106 OFFCURVE",
"144 -117 OFFCURVE",
"376 -184 CURVE",
"384 -151 LINE",
"207 -107 OFFCURVE",
"317 68 OFFCURVE",
"459 17 CURVE",
"466 52 LINE"
);
}
);
width = 621;
}
);
unicode = 0639;
},
{
glyphname = "ain-ar.fina";
lastChange = "2019-05-14 18:22:26 +0000";
layers = (
{
layerId = "BA82AF6A-5289-49F9-B535-AE40A2A15B95";
paths = (
{
closed = 1;
nodes = (
"452 419 OFFCURVE",
"544 323 OFFCURVE",
"541 213 CURVE SMOOTH",
"538 102 OFFCURVE",
"445 37 OFFCURVE",
"311 48 CURVE SMOOTH",
"262 52 OFFCURVE",
"208 77 OFFCURVE",
"176 111 CURVE",
"152 81 LINE",
"194 43 OFFCURVE",
"260 15 OFFCURVE",
"315 12 CURVE SMOOTH",
"469 4 OFFCURVE",
"575 84 OFFCURVE",
"581 213 CURVE SMOOTH",
"587 349 OFFCURVE",
"481 461 OFFCURVE",
"316 494 CURVE SMOOTH",
"160 525 OFFCURVE",
"54 440 OFFCURVE",
"52 281 CURVE SMOOTH",
"50 146 OFFCURVE",
"157 34 OFFCURVE",
"319 0 CURVE",
"327 31 LINE",
"187 70 OFFCURVE",
"93 170 OFFCURVE",
"93 281 CURVE SMOOTH",
"93 415 OFFCURVE",
"181 483 OFFCURVE",
"312 452 CURVE SMOOTH"
);
},
{
closed = 1;
nodes = (
"500 0 OFFCURVE",
"561 -8 OFFCURVE",
"603 1 CURVE",
"608 37 LINE",
"565 30 OFFCURVE",
"503 33 OFFCURVE",
"453 45 CURVE SMOOTH",
"289 84 OFFCURVE",
"150 -119 OFFCURVE",
"376 -184 CURVE",
"384 -151 LINE",
"213 -109 OFFCURVE",
"316 33 OFFCURVE",
"450 9 CURVE SMOOTH"
);
}
);
width = 600;
}
);
unicode = FECA;
},
{
glyphname = "ain-ar.medi";
lastChange = "2019-05-14 16:39:46 +0000";
layers = (
{
layerId = "BA82AF6A-5289-49F9-B535-AE40A2A15B95";
paths = (
{
closed = 1;
nodes = (
"452 419 OFFCURVE",
"544 323 OFFCURVE",
"541 213 CURVE SMOOTH",
"538 102 OFFCURVE",
"443 44 OFFCURVE",
"309 55 CURVE",
"315 18 LINE",
"469 10 OFFCURVE",
"575 84 OFFCURVE",
"581 213 CURVE SMOOTH",
"587 349 OFFCURVE",
"481 461 OFFCURVE",
"316 494 CURVE SMOOTH",
"160 525 OFFCURVE",
"54 440 OFFCURVE",
"52 281 CURVE SMOOTH",
"50 146 OFFCURVE",
"157 54 OFFCURVE",
"319 20 CURVE",
"327 51 LINE",
"187 90 OFFCURVE",
"93 170 OFFCURVE",
"93 281 CURVE SMOOTH",
"93 415 OFFCURVE",
"181 483 OFFCURVE",
"312 452 CURVE SMOOTH"
);
},
{
closed = 1;
nodes = (
"500 4 OFFCURVE",
"561 -8 OFFCURVE",
"603 1 CURVE",
"608 37 LINE",
"565 30 OFFCURVE",
"503 33 OFFCURVE",
"453 45 CURVE SMOOTH",
"289 84 OFFCURVE",
"137 0 OFFCURVE",
"-3 34 CURVE",
"-9 -1 LINE",
"185 -32 OFFCURVE",
"191 34 OFFCURVE",
"450 9 CURVE SMOOTH"
);
}
);
width = 600;
}
);
unicode = FECC;
},
{
glyphname = "ain-ar.init";
lastChange = "2019-05-12 20:05:12 +0000";
layers = (
{
layerId = "BA82AF6A-5289-49F9-B535-AE40A2A15B95";
paths = (
{
closed = 1;
nodes = (
"438 426 LINE",
"394 462 OFFCURVE",
"327 488 OFFCURVE",
"272 490 CURVE SMOOTH",
"118 496 OFFCURVE",
"14 412 OFFCURVE",
"12 281 CURVE SMOOTH",
"10 146 OFFCURVE",
"157 34 OFFCURVE",
"319 0 CURVE",
"327 31 LINE",
"187 70 OFFCURVE",
"53 170 OFFCURVE",
"53 281 CURVE SMOOTH",
"53 393 OFFCURVE",
"143 460 OFFCURVE",
"277 452 CURVE SMOOTH",
"327 449 OFFCURVE",
"381 429 OFFCURVE",
"414 396 CURVE"
);
},
{
closed = 1;
nodes = (
"450 25 CURVE",
"450 63 LINE",
"334 22 OFFCURVE",
"155 11 OFFCURVE",
"-10 45 CURVE",
"-3 0 LINE",
"187 -20 OFFCURVE",
"342 -16 OFFCURVE"
);
}
);
width = 460;
}
);
unicode = FECB;
},
{
glyphname = "fehDotless-ar";
lastChange = "2019-05-14 14:31:53 +0000";
layers = (
{
background = {
paths = (
{
closed = 1;
nodes = (
"287 317 CURVE SMOOTH",
"287 151 OFFCURVE",
"379 35 OFFCURVE",
"518 26 CURVE",
"489 18 OFFCURVE",
"448 12 OFFCURVE",
"415 12 CURVE SMOOTH",
"307 12 OFFCURVE",
"146 74 OFFCURVE",
"14 166 CURVE",
"0 120 LINE",
"116 26 OFFCURVE",
"276 -36 OFFCURVE",
"399 -36 CURVE SMOOTH",
"637 -36 OFFCURVE",
"795 97 OFFCURVE",
"795 290 CURVE SMOOTH",
"795 461 OFFCURVE",
"696 570 OFFCURVE",
"534 570 CURVE SMOOTH",
"387 570 OFFCURVE",
"287 476 OFFCURVE"
);
},
{
closed = 1;
nodes = (
"737 424 OFFCURVE",
"737 289 CURVE SMOOTH",
"737 134 OFFCURVE",
"646 30 OFFCURVE",
"506 69 CURVE SMOOTH",
"408 97 OFFCURVE",
"337 189 OFFCURVE",
"337 317 CURVE SMOOTH",
"337 432 OFFCURVE",
"415 515 OFFCURVE",
"527 515 CURVE SMOOTH",
"657 515 OFFCURVE"
);
}
);
};
guideLines = (
{
position = "{433, 284}";
showMeasurement = 1;
}
);
layerId = "BA82AF6A-5289-49F9-B535-AE40A2A15B95";
paths = (
{
closed = 1;
nodes = (
"644 -25 OFFCURVE",
"795 61 OFFCURVE",
"795 291 CURVE SMOOTH",
"795 459 OFFCURVE",
"691 571 OFFCURVE",
"534 571 CURVE SMOOTH",
"386 571 OFFCURVE",
"287 470 OFFCURVE",
"287 318 CURVE SMOOTH",
"287 152 OFFCURVE",
"379 36 OFFCURVE",
"518 27 CURVE",
"488 19 OFFCURVE",
"446 13 OFFCURVE",
"415 13 CURVE SMOOTH",
"252 13 OFFCURVE",
"95 47 OFFCURVE",
"22 98 CURVE",
"10 61 LINE",
"73 9 OFFCURVE",
"235 -25 OFFCURVE",
"417 -25 CURVE SMOOTH"
);
},
{
closed = 1;
nodes = (
"397 100 OFFCURVE",
"324 199 OFFCURVE",
"324 318 CURVE SMOOTH",
"324 447 OFFCURVE",
"406 533 OFFCURVE",
"529 533 CURVE SMOOTH",
"666 533 OFFCURVE",
"757 436 OFFCURVE",
"757 290 CURVE SMOOTH",
"757 116 OFFCURVE",
"657 28 OFFCURVE",
"506 70 CURVE SMOOTH"
);
}
);
width = 795;
}
);
unicode = 06A1;
},
{
glyphname = "fehDotless-ar.fina";
lastChange = "2019-05-14 14:44:31 +0000";
layers = (
{
components = (
{
name = _connection;
transform = "{1, 0, 0, 1, 645, 0}";
},
{
name = "fehDotless-ar";
transform = "{1, 0, 0, 1, -10, 0}";
}
);
layerId = "BA82AF6A-5289-49F9-B535-AE40A2A15B95";
paths = (
{
closed = 0;
nodes = (
"113 556 LINE"
);
}
);
width = 803;
}
);
},
{
glyphname = "fehDotless-ar.medi";
lastChange = "2019-05-14 14:34:46 +0000";
layers = (
{
layerId = "BA82AF6A-5289-49F9-B535-AE40A2A15B95";
paths = (
{
closed = 1;
nodes = (
"644 -16 OFFCURVE",
"795 63 OFFCURVE",
"795 300 CURVE SMOOTH",
"795 468 OFFCURVE",
"691 580 OFFCURVE",
"534 580 CURVE SMOOTH",
"386 580 OFFCURVE",
"287 479 OFFCURVE",
"287 327 CURVE SMOOTH",
"287 161 OFFCURVE",
"379 45 OFFCURVE",
"518 36 CURVE",
"488 28 OFFCURVE",
"446 22 OFFCURVE",
"415 22 CURVE SMOOTH",
"252 22 OFFCURVE",
"95 56 OFFCURVE",
"22 107 CURVE",
"10 70 LINE",
"73 18 OFFCURVE",
"235 -16 OFFCURVE",
"417 -16 CURVE SMOOTH"
);
},
{
closed = 1;
nodes = (
"397 109 OFFCURVE",
"324 208 OFFCURVE",
"324 327 CURVE SMOOTH",
"324 456 OFFCURVE",
"406 542 OFFCURVE",
"529 542 CURVE SMOOTH",
"666 542 OFFCURVE",
"757 445 OFFCURVE",
"757 299 CURVE SMOOTH",
"757 125 OFFCURVE",
"657 37 OFFCURVE",
"506 79 CURVE SMOOTH"
);
},
{
closed = 1;
nodes = (
"603 29 LINE",
"667 3 OFFCURVE",
"749 -10 OFFCURVE",
"808 -3 CURVE",
"813 33 LINE",
"749 31 OFFCURVE",
"667 46 OFFCURVE",
"609 69 CURVE"
);
}
);
width = 813;
}
);
},
{
glyphname = "kaf-ar";
lastChange = "2019-05-14 15:29:19 +0000";
layers = (
{
components = (
{
name = "lam-ar";
transform = "{1, 0, 0, 1, 114, 0}";
},
{
name = "hamza-ar";
transform = "{0.39337, 0, 0, 0.39337, 161, 118}";
}
);
layerId = "BA82AF6A-5289-49F9-B535-AE40A2A15B95";
paths = (
{
closed = 0;
nodes = (
"114 454 LINE"
);
}
);
width = 393;
}
);
unicode = 0643;
},
{
glyphname = "kaf-ar.init";
lastChange = "2019-05-14 15:47:26 +0000";
layers = (
{
components = (
{
name = _connection;
transform = "{0.99669, 0.08014, -0.07633, 0.92373, -37, -24}";
}
);
layerId = "BA82AF6A-5289-49F9-B535-AE40A2A15B95";
paths = (
{
closed = 1;
nodes = (
"170 4 OFFCURVE",
"203 49 OFFCURVE",
"203 104 CURVE SMOOTH",
"203 181 OFFCURVE",
"153 233 OFFCURVE",
"78 233 CURVE SMOOTH",
"61 233 OFFCURVE",
"43 231 OFFCURVE",
"25 225 CURVE",
"25 195 LINE",
"32 197 OFFCURVE",
"53 199 OFFCURVE",
"78 199 CURVE SMOOTH",
"133 199 OFFCURVE",
"169 162 OFFCURVE",
"169 106 CURVE SMOOTH",
"169 64 OFFCURVE",
"145 30 OFFCURVE",
"109 21 CURVE",
"118 -11 LINE"
);
},
{
closed = 1;
nodes = (
"282 636 CURVE",
"282 677 LINE",
"-59 608 OFFCURVE",
"-11 407 OFFCURVE",
"25 195 CURVE",
"53 200 LINE",
"13 407 OFFCURVE",
"-5 589 OFFCURVE"
);
}
);
width = 282;
}
);
unicode = FEDB;
},
{
glyphname = "lam-ar";
lastChange = "2019-05-14 15:28:34 +0000";
layers = (
{
layerId = "BA82AF6A-5289-49F9-B535-AE40A2A15B95";
paths = (
{
closed = 1;
nodes = (
"167 -45 OFFCURVE",
"279 41 OFFCURVE",
"279 226 CURVE SMOOTH",
"279 325 OFFCURVE",
"267 459 OFFCURVE",
"260 516 CURVE",
"221 520 LINE",
"228 464 OFFCURVE",
"242 331 OFFCURVE",
"242 226 CURVE SMOOTH",
"242 70 OFFCURVE",
"151 -3 OFFCURVE",
"15 45 CURVE",
"0 10 LINE"
);
}
);
width = 279;
}
);
unicode = 0644;
},
{
glyphname = "lam-ar.medi";
lastChange = "2019-05-14 15:31:16 +0000";
layers = (
{
components = (
{
name = "lam-ar";
},
{
name = _connection;
transform = "{1, 0, 0, 1, 187, -4}";
}
);
layerId = "BA82AF6A-5289-49F9-B535-AE40A2A15B95";
paths = (
{
closed = 0;
nodes = (
"-4 388 LINE"
);
}
);
width = 279;
}
);
unicode = FEE0;
},
{
glyphname = "lam-ar.init";
lastChange = "2019-05-14 15:32:14 +0000";
layers = (
{
components = (
{
name = "lam-ar";
transform = "{1, 0, 0, 1, -100, 0}";
}
);
layerId = "BA82AF6A-5289-49F9-B535-AE40A2A15B95";
paths = (
{
closed = 0;
nodes = (
"19 204 LINE"
);
}
);
width = 179;
}
);
unicode = FEDF;
},
{
glyphname = "meem-ar.fina";
lastChange = "2019-05-14 15:35:32 +0000";
layers = (
{
components = (
{
name = "meem-ar";
},
{
name = _connection;
transform = "{1, 0, 0, 1, 485, -13}";
}
);
layerId = "BA82AF6A-5289-49F9-B535-AE40A2A15B95";
paths = (
{
closed = 0;
nodes = (
"98 703 LINE"
);
}
);
width = 613;
}
);
unicode = FEE2;
},
{
glyphname = "meem-ar.init";
lastChange = "2019-05-14 15:37:36 +0000";
layers = (
{
anchors = (
{
name = bottom;
position = "{307, 0}";
},
{
name = top;
position = "{307, 500}";
}
);
components = (
{
name = "fehDotless-ar";
transform = "{1, 0, 0, -1, -182, 15}";
}
);
layerId = "BA82AF6A-5289-49F9-B535-AE40A2A15B95";
paths = (
{
closed = 0;
nodes = (
"179 729 LINE"
);
}
);
width = 613;
}
);
unicode = FEE3;
},
{
glyphname = "noonghunna-ar";
lastChange = "2019-05-14 16:59:32 +0000";
layers = (
{
layerId = "BA82AF6A-5289-49F9-B535-AE40A2A15B95";
paths = (
{
closed = 1;
nodes = (
"226 -368 OFFCURVE",
"132 -290 OFFCURVE",
"136 -152 CURVE",
"100 -152 LINE",
"100 -336 OFFCURVE",
"205 -419 OFFCURVE",
"362 -359 CURVE SMOOTH",
"484 -312 OFFCURVE",
"540 -140 OFFCURVE",
"503 73 CURVE",
"472 69 LINE",
"494 -127 OFFCURVE",
"444 -283 OFFCURVE",
"347 -321 CURVE SMOOTH"
);
}
);
width = 600;
}
);
unicode = 06BA;
},
{
glyphname = "noonghunna-ar.fina";
lastChange = "2019-05-14 15:50:02 +0000";
layers = (
{
components = (
{
name = "noonghunna-ar";
transform = "{1, 0, 0, 1, -95, 0}";
},
{
name = _connection;
transform = "{1, 0, 0, 1, 411, 0}";
}
);
layerId = "BA82AF6A-5289-49F9-B535-AE40A2A15B95";
paths = (
{
closed = 0;
nodes = (
"221 198 LINE"
);
}
);
width = 569;
}
);
unicode = FB9F;
},
{
glyphname = "heh-ar.medi";
lastChange = "2019-05-14 19:20:29 +0000";
layers = (
{
components = (
{
name = _counter;
transform = "{0.98162, -0.19085, -0.19085, -0.98162, 149, 601}";
},
{
name = _counter_small;
transform = "{1, 0, 0, 1, 24, 46}";
},
{
name = _connection;
transform = "{1.68879, 0.08048, -0.04595, 1.02099, 365, -9}";
},
{
name = _connection;
transform = "{1.81522, 0.12122, -0.16053, 0.93678, 39, -9}";
}
);
layerId = "BA82AF6A-5289-49F9-B535-AE40A2A15B95";
paths = (
{
closed = 0;
nodes = (
"263 514 LINE"
);
}
);
width = 600;
}
);
unicode = FEEC;
},
{
glyphname = "waw-ar";
lastChange = "2019-05-14 19:12:11 +0000";
layers = (
{
components = (
{
name = _counter;
transform = "{1, 0, 0, 1, 3, 0}";
},
{
name = _connection2;
transform = "{0.94356, -0.20366, 0.15231, 0.95357, 251, 17}";
}
);
layerId = "BA82AF6A-5289-49F9-B535-AE40A2A15B95";
paths = (
{
closed = 0;
nodes = (
"-32 434 LINE"
);
}
);
width = 506;
}
);
unicode = 0648;
},
{
glyphname = "waw-ar.fina";
lastChange = "2019-05-14 19:23:08 +0000";
layers = (
{
components = (
{
name = "waw-ar";
transform = "{0.9812, -0.04122, 0.04062, 0.99563, -11, 34}";
},
{
name = _connection;
transform = "{1.87777, -0.1314, -0.09597, 1.03849, 238, 19}";
}
);
guideLines = (
{
position = "{283, 471}";
showMeasurement = 1;
},
{
angle = 90;
position = "{220, 352}";
showMeasurement = 1;
},
{
angle = 90;
position = "{501, 146}";
}
);
layerId = "BA82AF6A-5289-49F9-B535-AE40A2A15B95";
paths = (
{
closed = 0;
nodes = (
"135 566 LINE"
);
}
);
width = 502;
}
);
unicode = FEEE;
},
{
glyphname = "alefMaksura-ar";
lastChange = "2019-05-14 19:57:39 +0000";
layers = (
{
guideLines = (
{
angle = 90;
position = "{217, -22}";
showMeasurement = 1;
}
);
layerId = "BA82AF6A-5289-49F9-B535-AE40A2A15B95";
paths = (
{
closed = 1;
nodes = (
"311 52 OFFCURVE",
"311 -78 CURVE SMOOTH",
"311 -130 OFFCURVE",
"252 -177 OFFCURVE",
"176 -177 CURVE SMOOTH",
"112 -177 OFFCURVE",
"68 -139 OFFCURVE",
"68 -121 CURVE",
"38 -140 LINE",
"36 -160 OFFCURVE",
"95 -217 OFFCURVE",
"177 -217 CURVE SMOOTH",
"274 -217 OFFCURVE",
"342 -160 OFFCURVE",
"342 -66 CURVE SMOOTH",
"342 81 OFFCURVE",
"41 83 OFFCURVE",
"41 275 CURVE SMOOTH",
"41 408 OFFCURVE",
"193 474 OFFCURVE",
"323 410 CURVE",
"349 443 LINE",
"188 516 OFFCURVE",
"0 444 OFFCURVE",
"0 277 CURVE SMOOTH",
"0 57 OFFCURVE"
);
}
);
width = 548;
}
);
unicode = 0649;
},
{
glyphname = "alefMaksura-ar.fina";
lastChange = "2019-05-14 19:57:50 +0000";
layers = (
{
components = (
{
name = _connection;
transform = "{1, 0, 0, 1.05031, 349, 0}";
},
{
name = "alefMaksura-ar";
transform = "{1, 0, 0, 1, 0, -394}";
}
);
layerId = "BA82AF6A-5289-49F9-B535-AE40A2A15B95";
paths = (
{
closed = 0;
nodes = (
"223 364 LINE"
);
}
);
width = 499;
}
);
unicode = FEF0;
},
{
glyphname = "dotabove-ar";
lastChange = "2019-05-16 20:49:11 +0000";
layers = (
{
anchors = (
{
name = _top;
position = "{22, 359}";
},
{
name = top;
position = "{22, 428}";
}
);
layerId = "BA82AF6A-5289-49F9-B535-AE40A2A15B95";
paths = (
{
closed = 1;
nodes = (
"9 379 OFFCURVE",
"0 391 OFFCURVE",
"0 404 CURVE SMOOTH",
"0 417 OFFCURVE",
"8 428 OFFCURVE",
"21 428 CURVE SMOOTH",
"33 428 OFFCURVE",
"43 417 OFFCURVE",
"43 404 CURVE SMOOTH",
"43 391 OFFCURVE",
"34 379 OFFCURVE",
"22 379 CURVE SMOOTH"
);
}
);
width = 43;
}
);
},
{
glyphname = "doublestroke-ar";
lastChange = "2019-05-14 20:01:27 +0000";
layers = (
{
layerId = "BA82AF6A-5289-49F9-B535-AE40A2A15B95";
paths = (
{
closed = 1;
nodes = (
"194 7 OFFCURVE",
"436 10 OFFCURVE",
"678 6 CURVE",
"664 45 LINE",
"428 47 OFFCURVE",
"191 54 OFFCURVE",
"-48 41 CURVE",
"-47 -5 LINE"
);
},
{
closed = 1;
nodes = (
"195 74 OFFCURVE",
"437 77 OFFCURVE",
"679 73 CURVE",
"665 112 LINE",
"429 114 OFFCURVE",
"192 121 OFFCURVE",
"-47 108 CURVE",
"-46 62 LINE"
);
}
);
width = 600;
}
);
},
{
export = 0;
glyphname = _connection;
lastChange = "2019-05-16 21:43:43 +0000";
layers = (
{
anchors = (
{
name = "#exit";
position = "{0, 0}";
}
);
guideLines = (
{
angle = 90;
position = "{78, 63}";
showMeasurement = 1;
}
);
layerId = "BA82AF6A-5289-49F9-B535-AE40A2A15B95";
paths = (
{
closed = 1;
nodes = (
"0 0 LINE",
"18 -2 OFFCURVE",
"37 -2 OFFCURVE",
"52 0 CURVE",
"52 38 LINE",
"38 36 OFFCURVE",
"20 36 OFFCURVE",
"0 38 CURVE"
);
}
);
width = 52;
}
);
},
{
export = 0;
glyphname = _tajweef;
lastChange = "2019-05-14 14:37:38 +0000";
layers = (
{
layerId = "BA82AF6A-5289-49F9-B535-AE40A2A15B95";
paths = (
{
closed = 1;
nodes = (
"196 34 LINE",
"196 -67 OFFCURVE",
"142 -122 OFFCURVE",
"96 -122 CURVE SMOOTH",
"45 -122 OFFCURVE",
"29 -60 OFFCURVE",
"35 -4 CURVE",
"0 1 LINE",
"0 -76 OFFCURVE",
"17 -153 OFFCURVE",
"96 -153 CURVE SMOOTH",
"183 -153 OFFCURVE",
"230 -66 OFFCURVE",
"230 34 CURVE"
);
}
);
width = 230;
}
);
},
{
export = 0;
glyphname = _counter;
lastChange = "2019-05-14 19:01:36 +0000";
layers = (
{
layerId = "BA82AF6A-5289-49F9-B535-AE40A2A15B95";
paths = (
{
closed = 1;
nodes = (
"96 88 OFFCURVE",
"28 190 OFFCURVE",
"34 309 CURVE SMOOTH",
"41 438 OFFCURVE",
"127 520 OFFCURVE",
"249 514 CURVE SMOOTH",
"386 507 OFFCURVE",
"472 407 OFFCURVE",
"465 261 CURVE SMOOTH",
"457 88 OFFCURVE",
"353 5 OFFCURVE",
"205 53 CURVE SMOOTH"
);
},
{
closed = 1;
nodes = (
"380 -27 OFFCURVE",
"495 74 OFFCURVE",
"503 261 CURVE SMOOTH",
"510 428 OFFCURVE",
"412 545 OFFCURVE",
"255 552 CURVE SMOOTH",
"107 559 OFFCURVE",
"4 462 OFFCURVE",
"-3 310 CURVE SMOOTH",
"-10 160 OFFCURVE",
"77 40 OFFCURVE",
"215 9 CURVE SMOOTH"
);
}
);
width = 600;
}
);
},
{
export = 0;
glyphname = _counter_small;
lastChange = "2019-05-14 18:35:41 +0000";
layers = (
{
guideLines = (
{
position = "{222, 447}";
}
);
layerId = "BA82AF6A-5289-49F9-B535-AE40A2A15B95";
paths = (
{
closed = 1;
nodes = (
"223 -135 OFFCURVE",
"207 -112 OFFCURVE",
"208 -86 CURVE SMOOTH",
"209 -57 OFFCURVE",
"229 -39 OFFCURVE",
"257 -39 CURVE SMOOTH",
"288 -39 OFFCURVE",
"308 -64 OFFCURVE",
"307 -97 CURVE SMOOTH",
"306 -136 OFFCURVE",
"281 -154 OFFCURVE",
"248 -143 CURVE SMOOTH"
);
},
{
closed = 1;
nodes = (
"287 -193 OFFCURVE",
"339 -185 OFFCURVE",
"342 -100 CURVE SMOOTH",
"344 -44 OFFCURVE",
"312 -5 OFFCURVE",
"259 -2 CURVE SMOOTH",
"210 1 OFFCURVE",
"175 -32 OFFCURVE",
"173 -83 CURVE SMOOTH",
"171 -139 OFFCURVE",
"201 -174 OFFCURVE",
"246 -184 CURVE SMOOTH"
);
}
);
width = 600;
}
);
},
{
glyphname = _connection2;
lastChange = "2019-05-14 19:11:20 +0000";
layers = (
{
layerId = "BA82AF6A-5289-49F9-B535-AE40A2A15B95";
paths = (
{
closed = 1;
nodes = (
"195 74 OFFCURVE",
"214 170 CURVE",
"177 170 LINE",
"169 98 OFFCURVE",
"56 -65 OFFCURVE",
"0 -116 CURVE",
"23 -142 LINE",
"77 -99 OFFCURVE"
);
}
